<svg class="toyplot-canvas-Canvas" xmlns:toyplot="http://www.sandia.gov/toyplot" xmlns:xlink="http://www.w3.org/1999/xlink" xmlns="http://www.w3.org/2000/svg" width="1500.0px" height="1260.0px" viewBox="0 0 1500.0 1260.0" preserveAspectRatio="xMidYMid meet" style="background-color:#121820;border-color:#292724;border-style:none;border-width:1.0;fill:rgb(16.1%,15.3%,14.1%);fill-opacity:1.0;font-family:Helvetica;font-size:12px;opacity:1.0;stroke:rgb(16.1%,15.3%,14.1%);stroke-opacity:1.0;stroke-width:1.0" id="t00180cc99a734058b5f7fbbded4b3ab4"><g class="toyplot-coordinates-Cartesian" id="t0995727eb128466abadbc0aaa38645a5"><clipPath id="t9932090655c8497d93c1453670238deb"><rect x="35.0" y="35.0" width="1430.0" height="1190.0" /></clipPath><g clip-path="url(#t9932090655c8497d93c1453670238deb)"><g class="toytree-mark-Toytree" id="t30653d235efa4b4fa6c38c9abb9a4e61"><g class="toytree-Edges" style="stroke:rgb(44.3%,50.2%,56.5%);stroke-opacity:0.95;stroke-linecap:round;stroke-width:1.8;fill:none"><path d="M 238.9 1130.9 L 238.9 1202.8 L 426.9 1202.8" id="39,0" style="" /><path d="M 262.4 1059.0 L 262.4 1163.3 L 426.9 1163.3" id="38,1" style="" /><path d="M 309.4 1081.8 L 309.4 1123.8 L 426.9 1123.8" id="35,2" style="" /><path d="M 332.9 1039.8 L 332.9 1084.3 L 426.9 1084.3" id="34,3" style="" /><path d="M 356.4 995.4 L 356.4 1044.8 L 426.9 1044.8" id="33,4" style="" /><path d="M 403.4 985.5 L 403.4 1005.3 L 426.9 1005.3" id="30,5" style="" /><path d="M 403.4 985.5 L 403.4 965.8 L 426.9 965.8" id="30,6" style="" /><path d="M 403.4 906.5 L 403.4 926.3 L 426.9 926.3" id="31,7" style="" /><path d="M 403.4 906.5 L 403.4 886.8 L 426.9 886.8" id="31,8" style="" /><path d="M 403.4 827.5 L 403.4 847.3 L 426.9 847.3" id="36,9" style="" /><path d="M 403.4 827.5 L 403.4 807.8 L 426.9 807.8" id="36,10" style="" /><path d="M 97.9 728.8 L 97.9 768.3 L 426.9 768.3" id="53,11" style="" /><path d="M 121.4 689.3 L 121.4 728.8 L 426.9 728.8" id="52,12" style="" /><path d="M 144.9 649.8 L 144.9 689.3 L 426.9 689.3" id="51,13" style="" /><path d="M 168.4 610.3 L 168.4 649.8 L 426.9 649.8" id="50,14" style="" /><path d="M 191.9 570.8 L 191.9 610.2 L 426.9 610.2" id="49,15" style="" /><path d="M 215.4 531.3 L 215.4 570.7 L 426.9 570.7" id="48,16" style="" /><path d="M 238.9 491.9 L 238.9 531.2 L 426.9 531.2" id="47,17" style="" /><path d="M 262.4 452.5 L 262.4 491.7 L 426.9 491.7" id="46,18" style="" /><path d="M 285.9 413.3 L 285.9 452.2 L 426.9 452.2" id="45,19" style="" /><path d="M 309.4 374.5 L 309.4 412.7 L 426.9 412.7" id="44,20" style="" /><path d="M 332.9 336.2 L 332.9 373.2 L 426.9 373.2" id="43,21" style="" /><path d="M 356.4 299.2 L 356.4 333.7 L 426.9 333.7" id="42,22" style="" /><path d="M 379.9 264.6 L 379.9 294.2 L 426.9 294.2" id="41,23" style="" /><path d="M 403.4 235.0 L 403.4 254.7 L 426.9 254.7" id="40,24" style="" /><path d="M 403.4 235.0 L 403.4 215.2 L 426.9 215.2" id="40,25" style="" /><path d="M 356.4 141.1 L 356.4 175.7 L 426.9 175.7" id="56,26" style="" /><path d="M 379.9 106.6 L 379.9 136.2 L 426.9 136.2" id="55,27" style="" /><path d="M 403.4 77.0 L 403.4 96.7 L 426.9 96.7" id="54,28" style="" /><path d="M 403.4 77.0 L 403.4 57.2 L 426.9 57.2" id="54,29" style="" /><path d="M 379.9 946.0 L 379.9 985.5 L 403.4 985.5" id="32,30" style="" /><path d="M 379.9 946.0 L 379.9 906.5 L 403.4 906.5" id="32,31" style="" /><path d="M 356.4 995.4 L 356.4 946.0 L 379.9 946.0" id="33,32" style="" /><path d="M 332.9 1039.8 L 332.9 995.4 L 356.4 995.4" id="34,33" style="" /><path d="M 309.4 1081.8 L 309.4 1039.8 L 332.9 1039.8" id="35,34" style="" /><path d="M 285.9 954.7 L 285.9 1081.8 L 309.4 1081.8" id="37,35" style="" /><path d="M 285.9 954.7 L 285.9 827.5 L 403.4 827.5" id="37,36" style="" /><path d="M 262.4 1059.0 L 262.4 954.7 L 285.9 954.7" id="38,37" style="" /><path d="M 238.9 1130.9 L 238.9 1059.0 L 262.4 1059.0" id="39,38" style="" /><path d="M 50.8 782.9 L 50.8 1130.9 L 238.9 1130.9" id="58,39" style="" /><path d="M 379.9 264.6 L 379.9 235.0 L 403.4 235.0" id="41,40" style="" /><path d="M 356.4 299.2 L 356.4 264.6 L 379.9 264.6" id="42,41" style="" /><path d="M 332.9 336.2 L 332.9 299.2 L 356.4 299.2" id="43,42" style="" /><path d="M 309.4 374.5 L 309.4 336.2 L 332.9 336.2" id="44,43" style="" /><path d="M 285.9 413.3 L 285.9 374.5 L 309.4 374.5" id="45,44" style="" /><path d="M 262.4 452.5 L 262.4 413.3 L 285.9 413.3" id="46,45" style="" /><path d="M 238.9 491.9 L 238.9 452.5 L 262.4 452.5" id="47,46" style="" /><path d="M 215.4 531.3 L 215.4 491.9 L 238.9 491.9" id="48,47" style="" /><path d="M 191.9 570.8 L 191.9 531.3 L 215.4 531.3" id="49,48" style="" /><path d="M 168.4 610.3 L 168.4 570.8 L 191.9 570.8" id="50,49" style="" /><path d="M 144.9 649.8 L 144.9 610.3 L 168.4 610.3" id="51,50" style="" /><path d="M 121.4 689.3 L 121.4 649.8 L 144.9 649.8" id="52,51" style="" /><path d="M 97.9 728.8 L 97.9 689.3 L 121.4 689.3" id="53,52" style="" /><path d="M 74.4 435.0 L 74.4 728.8 L 97.9 728.8" id="57,53" style="" /><path d="M 379.9 106.6 L 379.9 77.0 L 403.4 77.0" id="55,54" style="" /><path d="M 356.4 141.1 L 356.4 106.6 L 379.9 106.6" id="56,55" style="" /><path d="M 74.4 435.0 L 74.4 141.1 L 356.4 141.1" id="57,56" style="" /><path d="M 50.8 782.9 L 50.8 435.0 L 74.4 435.0" id="58,57" style="" /></g><g class="toytree-AlignEdges" style="stroke:rgb(36.5%,42.4%,47.8%);stroke-opacity:0.95;stroke-dasharray:2,4;stroke-linecap:round;stroke-width:1.8"><path d="M 426.9 1202.8 L 426.9 1202.8" /><path d="M 426.9 1163.3 L 426.9 1163.3" /><path d="M 426.9 1123.8 L 426.9 1123.8" /><path d="M 426.9 1084.3 L 426.9 1084.3" /><path d="M 426.9 1044.8 L 426.9 1044.8" /><path d="M 426.9 1005.3 L 426.9 1005.3" /><path d="M 426.9 965.8 L 426.9 965.8" /><path d="M 426.9 926.3 L 426.9 926.3" /><path d="M 426.9 886.8 L 426.9 886.8" /><path d="M 426.9 847.3 L 426.9 847.3" /><path d="M 426.9 807.8 L 426.9 807.8" /><path d="M 426.9 768.3 L 426.9 768.3" /><path d="M 426.9 728.8 L 426.9 728.8" /><path d="M 426.9 689.3 L 426.9 689.3" /><path d="M 426.9 649.8 L 426.9 649.8" /><path d="M 426.9 610.2 L 426.9 610.2" /><path d="M 426.9 570.7 L 426.9 570.7" /><path d="M 426.9 531.2 L 426.9 531.2" /><path d="M 426.9 491.7 L 426.9 491.7" /><path d="M 426.9 452.2 L 426.9 452.2" /><path d="M 426.9 412.7 L 426.9 412.7" /><path d="M 426.9 373.2 L 426.9 373.2" /><path d="M 426.9 333.7 L 426.9 333.7" /><path d="M 426.9 294.2 L 426.9 294.2" /><path d="M 426.9 254.7 L 426.9 254.7" /><path d="M 426.9 215.2 L 426.9 215.2" /><path d="M 426.9 175.7 L 426.9 175.7" /><path d="M 426.9 136.2 L 426.9 136.2" /><path d="M 426.9 96.7 L 426.9 96.7" /><path d="M 426.9 57.2 L 426.9 57.2" /></g><g class="toytree-AdmixEdges" style="fill:rgb(0.0%,0.0%,0.0%);fill-opacity:0.0;stroke:rgb(90.6%,54.1%,76.5%);stroke-opacity:0.6;font-size:14px;stroke-linecap:round;stroke-width:5" /><g class="toytree-Nodes" style="fill:rgb(40.0%,76.1%,64.7%);fill-opacity:1.0;stroke:none;stroke-width:1.5" /><g class="toytree-TipLabels" style="fill:rgb(90.6%,54.1%,76.5%);fill-opacity:1.0;font-family:Helvetica;font-size:12px;font-weight:300;vertical-align:baseline;white-space:pre;stroke:none"><g class="toytree-TipLabel" transform="translate(426.925,1202.8)"><text x="8.0" y="3.066" style="fill:rgb(90.6%,16.1%,54.1%);fill-opacity:1.0">LIBERDADE &gt; SEXUAL &gt; PS&#205;QUICA &gt; ASS&#201;DIO SEXUAL</text></g><g class="toytree-TipLabel" transform="translate(426.925,1163.3)"><text x="8.0" y="3.066" style="fill:rgb(90.6%,16.1%,54.1%);fill-opacity:1.0">LIBERDADE &gt; SEXUAL &gt; PS&#205;QUICA &gt; ABUSO SEXUAL PS&#205;QUICO</text></g><g class="toytree-TipLabel" transform="translate(426.925,1123.79)"><text x="8.0" y="3.066" style="fill:rgb(90.2%,67.1%,0.8%);fill-opacity:1.0">INTEGRIDADE &gt; F&#205;SICA &gt; LES&#195;O CORPORAL</text></g><g class="toytree-TipLabel" transform="translate(426.925,1084.29)"><text x="8.0" y="3.066" style="fill:rgb(90.2%,67.1%,0.8%);fill-opacity:1.0">INTEGRIDADE &gt; PS&#205;QUICA &gt; AMEA&#199;A ou COA&#199;&#195;O</text></g><g class="toytree-TipLabel" transform="translate(426.925,1044.79)"><text x="8.0" y="3.066" style="fill:rgb(90.2%,67.1%,0.8%);fill-opacity:1.0">INTEGRIDADE &gt; F&#205;SICA &gt; MAUS TRATOS</text></g><g class="toytree-TipLabel" transform="translate(426.925,1005.28)"><text x="8.0" y="3.066" style="fill:rgb(40.0%,65.1%,11.8%);fill-opacity:1.0">INTEGRIDADE &gt; F&#205;SICA &gt; AGRESS&#195;O ou VIAS DE FATO</text></g><g class="toytree-TipLabel" transform="translate(426.925,965.779)"><text x="8.0" y="3.066" style="fill:rgb(40.0%,65.1%,11.8%);fill-opacity:1.0">INTEGRIDADE &gt; PS&#205;QUICA &gt; CONSTRANGIMENTO</text></g><g class="toytree-TipLabel" transform="translate(426.925,926.276)"><text x="8.0" y="3.066" style="fill:rgb(40.0%,65.1%,11.8%);fill-opacity:1.0">INTEGRIDADE &gt; PS&#205;QUICA &gt; TORTURA PS&#205;QUICA</text></g><g class="toytree-TipLabel" transform="translate(426.925,886.772)"><text x="8.0" y="3.066" style="fill:rgb(40.0%,65.1%,11.8%);fill-opacity:1.0">INTEGRIDADE &gt; PATRIMONIAL &gt; INDIVIDUAL</text></g><g class="toytree-TipLabel" transform="translate(426.925,847.269)"><text x="8.0" y="3.066" style="fill:rgb(16.5%,43.5%,59.2%);fill-opacity:1.0">LIBERDADE &gt; SEXUAL &gt; F&#205;SICA &gt; ESTUPRO</text></g><g class="toytree-TipLabel" transform="translate(426.925,807.766)"><text x="8.0" y="3.066" style="fill:rgb(16.5%,43.5%,59.2%);fill-opacity:1.0">INTEGRIDADE &gt; F&#205;SICA &gt; TORTURA F&#205;SICA</text></g><g class="toytree-TipLabel" transform="translate(426.925,768.262)"><text x="8.0" y="3.066" style="fill:rgb(85.1%,37.3%,0.8%);fill-opacity:1.0">LIBERDADE &gt; SEXUAL &gt; ESTUPRO DE VULNER&#193;VEL</text></g><g class="toytree-TipLabel" transform="translate(426.925,728.759)"><text x="8.0" y="3.066" style="fill:rgb(85.1%,37.3%,0.8%);fill-opacity:1.0">LIBERDADE &gt; SEXUAL &gt; F&#205;SICA &gt; ABUSO SEXUAL F&#205;SICO</text></g><g class="toytree-TipLabel" transform="translate(426.925,689.255)"><text x="8.0" y="3.066" style="fill:rgb(85.1%,37.3%,0.8%);fill-opacity:1.0">LIBERDADE &gt; SEXUAL &gt; IMPORTUNA&#199;&#195;O SEXUAL</text></g><g class="toytree-TipLabel" transform="translate(426.925,649.752)"><text x="8.0" y="3.066" style="fill:rgb(10.6%,62.0%,46.7%);fill-opacity:1.0">LIBERDADE &gt; SEXUAL &gt; F&#205;SICA &gt; EXPLORA&#199;&#195;O SEXUAL</text></g><g class="toytree-TipLabel" transform="translate(426.925,610.248)"><text x="8.0" y="3.066" style="fill:rgb(10.6%,62.0%,46.7%);fill-opacity:1.0">LIBERDADE &gt; SEXUAL &gt; ESTUPRO DE VULNER&#193;VEL &gt; PEDOFILIA</text></g><g class="toytree-TipLabel" transform="translate(426.925,570.745)"><text x="8.0" y="3.066" style="fill:rgb(10.6%,62.0%,46.7%);fill-opacity:1.0">LIBERDADE &gt; DIREITOS INDIVIDUAIS &gt; STALKING</text></g><g class="toytree-TipLabel" transform="translate(426.925,531.241)"><text x="8.0" y="3.066" style="fill:rgb(10.6%,62.0%,46.7%);fill-opacity:1.0">LIBERDADE &gt; SEXUAL &gt; ESTUPRO VIRTUAL</text></g><g class="toytree-TipLabel" transform="translate(426.925,491.738)"><text x="8.0" y="3.066" style="fill:rgb(10.6%,62.0%,46.7%);fill-opacity:1.0">LIBERDADE &gt; DIREITOS INDIVIDUAIS &gt; SEQUESTRO</text></g><g class="toytree-TipLabel" transform="translate(426.925,452.234)"><text x="8.0" y="3.066" style="fill:rgb(45.9%,43.9%,70.2%);fill-opacity:1.0">INTEGRIDADE &gt; F&#205;SICA &gt; VIOL&#202;NCIA OBST&#201;TRICA</text></g><g class="toytree-TipLabel" transform="translate(426.925,412.731)"><text x="8.0" y="3.066" style="fill:rgb(45.9%,43.9%,70.2%);fill-opacity:1.0">VIDA &gt; FEMINIC&#205;DIO</text></g><g class="toytree-TipLabel" transform="translate(426.925,373.228)"><text x="8.0" y="3.066" style="fill:rgb(45.9%,43.9%,70.2%);fill-opacity:1.0">LIBERDADE &gt; SEXUAL &gt; VIOL&#202;NCIA SEXUAL MEDIANTE FRAUDE</text></g><g class="toytree-TipLabel" transform="translate(426.925,333.724)"><text x="8.0" y="3.066" style="fill:rgb(45.9%,43.9%,70.2%);fill-opacity:1.0">LIBERDADE &gt; SEXUAL &gt; ESTUPRO CORRETIVO</text></g><g class="toytree-TipLabel" transform="translate(426.925,294.221)"><text x="8.0" y="3.066" style="fill:rgb(45.9%,43.9%,70.2%);fill-opacity:1.0">DIREITOS CIVIS E POL&#205;TICOS &gt; VIOL&#202;NCIA POLIT&#205;CA DE G&#202;NERO E CONTRA AS MULHERES</text></g><g class="toytree-TipLabel" transform="translate(426.925,254.717)"><text x="8.0" y="3.066" style="fill:rgb(45.9%,43.9%,70.2%);fill-opacity:1.0">LIBERDADE &gt; DIREITOS INDIVIDUAIS &gt; TR&#193;FICO DE MULHERES - INTERNACIONAL</text></g><g class="toytree-TipLabel" transform="translate(426.925,215.214)"><text x="8.0" y="3.066" style="fill:rgb(45.9%,43.9%,70.2%);fill-opacity:1.0">LIBERDADE &gt; DIREITOS INDIVIDUAIS &gt; TR&#193;FICO DE MULHERES - NACIONAL</text></g><g class="toytree-TipLabel" transform="translate(426.925,175.71)"><text x="8.0" y="3.066" style="fill:rgb(65.1%,46.3%,11.4%);fill-opacity:1.0">INTEGRIDADE &gt; PS&#205;QUICA &gt; ALIENA&#199;&#195;O PARENTAL</text></g><g class="toytree-TipLabel" transform="translate(426.925,136.207)"><text x="8.0" y="3.066" style="fill:rgb(65.1%,46.3%,11.4%);fill-opacity:1.0">INTEGRIDADE &gt; PS&#205;QUICA &gt; ASS&#201;DIO MORAL</text></g><g class="toytree-TipLabel" transform="translate(426.925,96.7034)"><text x="8.0" y="3.066" style="fill:rgb(65.1%,46.3%,11.4%);fill-opacity:1.0">INTEGRIDADE &gt; PS&#205;QUICA &gt; EXPOSI&#199;&#195;O (EROTIZA&#199;&#195;O)</text></g><g class="toytree-TipLabel" transform="translate(426.925,57.2)"><text x="8.0" y="3.066" style="fill:rgb(65.1%,46.3%,11.4%);fill-opacity:1.0">LIBERDADE &gt; DIREITOS INDIVIDUAIS &gt; C&#193;RCERE PRIVADO</text></g></g></g></g></g><g class="toyplot-mark-Text" id="tcbb9ddc192bc4b8aaecb29cd739dd30a"><g class="toyplot-Series"><g class="toyplot-Datum" transform="translate(35.0,24.0)"><text x="-117.705" y="4.854500000000002" style="fill:rgb(95.7%,96.9%,98%);fill-opacity:1.0;font-family:helvetica;font-size:19.0px;font-weight:bold;opacity:1;stroke:none;vertical-align:baseline;white-space:pre">DAMICORE tree: Case-full</text></g></g></g><g class="toyplot-mark-Text" id="t46c4626fdce44b46b06ad89a129656f0"><g class="toyplot-Series"><g class="toyplot-Datum" transform="translate(35.0,46.0)"><text x="-257.094" y="3.066" style="fill:rgb(66.7%,71.8%,76.9%);fill-opacity:1.0;font-family:helvetica;font-size:12.0px;font-weight:normal;opacity:1;stroke:none;vertical-align:baseline;white-space:pre">Topology-only cladogram; branch lengths are visually uniform, and colors are local cluster labels.</text></g></g></g><g class="toyplot-coordinates-Table" id="tdbba0f8936e9450b8f48dc1a99f9116e"><g transform="translate(1371.0,24.0)"><text x="-83.23700000000001" y="-10.423" style="fill:rgb(95.7%,96.9%,98%);fill-opacity:1.0;font-family:Helvetica;font-size:14.0px;font-weight:bold;stroke:none;vertical-align:baseline;white-space:pre">Local DAMICORE cluster</text></g><g transform="translate(1366.0,39.5)"><g style="fill:rgb(16.5%,43.5%,59.2%);fill-opacity:1.0;stroke:rgb(16.5%,43.5%,59.2%);stroke-opacity:1.0" transform="translate(-5.55, -4.440892098500626e-16)"><rect x="-6.0" y="-6.0" width="12.0" height="12.0" /></g></g><g transform="translate(1376.0,39.5)"><text x="0" y="3.066" style="fill:rgb(83.1%,86.3%,89.4%);fill-opacity:1.0;font-family:Helvetica;font-size:12.0px;font-weight:normal;stroke:none;vertical-align:baseline;white-space:pre">Cluster 0</text></g><g transform="translate(1366.0,70.5)"><g style="fill:rgb(85.1%,37.3%,0.784%);fill-opacity:1.0;stroke:rgb(85.1%,37.3%,0.784%);stroke-opacity:1.0" transform="translate(-5.55, -4.440892098500626e-16)"><rect x="-6.0" y="-6.0" width="12.0" height="12.0" /></g></g><g transform="translate(1376.0,70.5)"><text x="0" y="3.066" style="fill:rgb(83.1%,86.3%,89.4%);fill-opacity:1.0;font-family:Helvetica;font-size:12.0px;font-weight:normal;stroke:none;vertical-align:baseline;white-space:pre">Cluster 1</text></g><g transform="translate(1366.0,101.5)"><g style="fill:rgb(10.6%,62%,46.7%);fill-opacity:1.0;stroke:rgb(10.6%,62%,46.7%);stroke-opacity:1.0" transform="translate(-5.55, -4.440892098500626e-16)"><rect x="-6.0" y="-6.0" width="12.0" height="12.0" /></g></g><g transform="translate(1376.0,101.5)"><text x="0" y="3.066" style="fill:rgb(83.1%,86.3%,89.4%);fill-opacity:1.0;font-family:Helvetica;font-size:12.0px;font-weight:normal;stroke:none;vertical-align:baseline;white-space:pre">Cluster 2</text></g><g transform="translate(1366.0,132.5)"><g style="fill:rgb(45.9%,43.9%,70.2%);fill-opacity:1.0;stroke:rgb(45.9%,43.9%,70.2%);stroke-opacity:1.0" transform="translate(-5.55, -4.440892098500626e-16)"><rect x="-6.0" y="-6.0" width="12.0" height="12.0" /></g></g><g transform="translate(1376.0,132.5)"><text x="0" y="3.066" style="fill:rgb(83.1%,86.3%,89.4%);fill-opacity:1.0;font-family:Helvetica;font-size:12.0px;font-weight:normal;stroke:none;vertical-align:baseline;white-space:pre">Cluster 3</text></g><g transform="translate(1366.0,163.5)"><g style="fill:rgb(90.6%,16.1%,54.1%);fill-opacity:1.0;stroke:rgb(90.6%,16.1%,54.1%);stroke-opacity:1.0" transform="translate(-5.55, -4.440892098500626e-16)"><rect x="-6.0" y="-6.0" width="12.0" height="12.0" /></g></g><g transform="translate(1376.0,163.5)"><text x="0" y="3.066" style="fill:rgb(83.1%,86.3%,89.4%);fill-opacity:1.0;font-family:Helvetica;font-size:12.0px;font-weight:normal;stroke:none;vertical-align:baseline;white-space:pre">Cluster 4</text></g><g transform="translate(1366.0,194.5)"><g style="fill:rgb(40%,65.1%,11.8%);fill-opacity:1.0;stroke:rgb(40%,65.1%,11.8%);stroke-opacity:1.0" transform="translate(-5.55, -4.440892098500626e-16)"><rect x="-6.0" y="-6.0" width="12.0" height="12.0" /></g></g><g transform="translate(1376.0,194.5)"><text x="0" y="3.066" style="fill:rgb(83.1%,86.3%,89.4%);fill-opacity:1.0;font-family:Helvetica;font-size:12.0px;font-weight:normal;stroke:none;vertical-align:baseline;white-space:pre">Cluster 5</text></g><g transform="translate(1366.0,225.5)"><g style="fill:rgb(90.2%,67.1%,0.784%);fill-opacity:1.0;stroke:rgb(90.2%,67.1%,0.784%);stroke-opacity:1.0" transform="translate(-5.55, -4.440892098500626e-16)"><rect x="-6.0" y="-6.0" width="12.0" height="12.0" /></g></g><g transform="translate(1376.0,225.5)"><text x="0" y="3.066" style="fill:rgb(83.1%,86.3%,89.4%);fill-opacity:1.0;font-family:Helvetica;font-size:12.0px;font-weight:normal;stroke:none;vertical-align:baseline;white-space:pre">Cluster 6</text></g><g transform="translate(1366.0,256.5)"><g style="fill:rgb(65.1%,46.3%,11.4%);fill-opacity:1.0;stroke:rgb(65.1%,46.3%,11.4%);stroke-opacity:1.0" transform="translate(-5.55, -4.440892098500626e-16)"><rect x="-6.0" y="-6.0" width="12.0" height="12.0" /></g></g><g transform="translate(1376.0,256.5)"><text x="0" y="3.066" style="fill:rgb(83.1%,86.3%,89.4%);fill-opacity:1.0;font-family:Helvetica;font-size:12.0px;font-weight:normal;stroke:none;vertical-align:baseline;white-space:pre">Cluster 7</text></g></g></svg>