<svg class="toyplot-canvas-Canvas" xmlns:toyplot="http://www.sandia.gov/toyplot" xmlns:xlink="http://www.w3.org/1999/xlink" xmlns="http://www.w3.org/2000/svg" width="1500.0px" height="1260.0px" viewBox="0 0 1500.0 1260.0" preserveAspectRatio="xMidYMid meet" style="background-color:#121820;border-color:#292724;border-style:none;border-width:1.0;fill:rgb(16.1%,15.3%,14.1%);fill-opacity:1.0;font-family:Helvetica;font-size:12px;opacity:1.0;stroke:rgb(16.1%,15.3%,14.1%);stroke-opacity:1.0;stroke-width:1.0" id="tdebcea0710e2469289afe05e8a43836c"><g class="toyplot-coordinates-Cartesian" id="t2aaa36e49a104dd7a0119ed75f075e65"><clipPath id="t626d643818de4a569a3a1229c2b538f7"><rect x="35.0" y="35.0" width="1430.0" height="1190.0" /></clipPath><g clip-path="url(#t626d643818de4a569a3a1229c2b538f7)"><g class="toytree-mark-Toytree" id="t3f7c9eea4d314688aa06d9ee63c450fd"><g class="toytree-Edges" style="stroke:rgb(44.3%,50.2%,56.5%);stroke-opacity:0.95;stroke-linecap:round;stroke-width:1.8;fill:none"><path d="M 55.5 1173.2 L 55.5 1202.8 L 416.4 1202.8" id="31,0" style="" /><path d="M 59.0 1143.5 L 59.0 1163.3 L 403.8 1163.3" id="30,1" style="" /><path d="M 59.0 1143.5 L 59.0 1123.8 L 402.8 1123.8" id="30,2" style="" /><path d="M 65.8 1064.5 L 65.8 1084.3 L 402.6 1084.3" id="32,3" style="" /><path d="M 65.8 1064.5 L 65.8 1044.8 L 389.7 1044.8" id="32,4" style="" /><path d="M 67.0 985.5 L 67.0 1005.3 L 406.5 1005.3" id="33,5" style="" /><path d="M 67.0 985.5 L 67.0 965.8 L 404.6 965.8" id="33,6" style="" /><path d="M 55.1 906.5 L 55.1 926.3 L 393.8 926.3" id="36,7" style="" /><path d="M 55.1 906.5 L 55.1 886.8 L 397.9 886.8" id="36,8" style="" /><path d="M 52.8 764.9 L 52.8 847.3 L 404.1 847.3" id="56,9" style="" /><path d="M 62.1 788.0 L 62.1 807.8 L 411.6 807.8" id="37,10" style="" /><path d="M 62.1 788.0 L 62.1 768.3 L 388.7 768.3" id="37,11" style="" /><path d="M 57.4 576.9 L 57.4 728.8 L 403.3 728.8" id="54,12" style="" /><path d="M 63.1 659.6 L 63.1 689.3 L 416.2 689.3" id="39,13" style="" /><path d="M 67.7 630.0 L 67.7 649.8 L 402.6 649.8" id="38,14" style="" /><path d="M 67.7 630.0 L 67.7 610.2 L 415.3 610.2" id="38,15" style="" /><path d="M 76.4 536.2 L 76.4 570.7 L 423.6 570.7" id="42,16" style="" /><path d="M 78.9 501.6 L 78.9 531.2 L 410.3 531.2" id="41,17" style="" /><path d="M 88.3 472.0 L 88.3 491.7 L 409.5 491.7" id="40,18" style="" /><path d="M 88.3 472.0 L 88.3 452.2 L 417.1 452.2" id="40,19" style="" /><path d="M 74.4 368.3 L 74.4 412.7 L 407.4 412.7" id="47,20" style="" /><path d="M 79.5 323.8 L 79.5 373.2 L 404.2 373.2" id="46,21" style="" /><path d="M 99.9 314.0 L 99.9 333.7 L 422.2 333.7" id="43,22" style="" /><path d="M 99.9 314.0 L 99.9 294.2 L 426.9 294.2" id="43,23" style="" /><path d="M 94.5 235.0 L 94.5 254.7 L 413.5 254.7" id="44,24" style="" /><path d="M 94.5 235.0 L 94.5 215.2 L 419.6 215.2" id="44,25" style="" /><path d="M 71.8 156.0 L 71.8 175.7 L 404.2 175.7" id="49,26" style="" /><path d="M 71.8 156.0 L 71.8 136.2 L 409.1 136.2" id="49,27" style="" /><path d="M 64.5 77.0 L 64.5 96.7 L 403.5 96.7" id="51,28" style="" /><path d="M 64.5 77.0 L 64.5 57.2 L 412.7 57.2" id="51,29" style="" /><path d="M 55.5 1173.2 L 55.5 1143.5 L 59.0 1143.5" id="31,30" style="" /><path d="M 51.5 1099.1 L 51.5 1173.2 L 55.5 1173.2" id="35,31" style="" /><path d="M 54.9 1025.0 L 54.9 1064.5 L 65.8 1064.5" id="34,32" style="" /><path d="M 54.9 1025.0 L 54.9 985.5 L 67.0 985.5" id="34,33" style="" /><path d="M 51.5 1099.1 L 51.5 1025.0 L 54.9 1025.0" id="35,34" style="" /><path d="M 50.8 967.4 L 50.8 1099.1 L 51.5 1099.1" id="58,35" style="" /><path d="M 51.5 835.7 L 51.5 906.5 L 55.1 906.5" id="57,36" style="" /><path d="M 54.6 682.5 L 54.6 788.0 L 62.1 788.0" id="55,37" style="" /><path d="M 63.1 659.6 L 63.1 630.0 L 67.7 630.0" id="39,38" style="" /><path d="M 59.3 425.1 L 59.3 659.6 L 63.1 659.6" id="53,39" style="" /><path d="M 78.9 501.6 L 78.9 472.0 L 88.3 472.0" id="41,40" style="" /><path d="M 76.4 536.2 L 76.4 501.6 L 78.9 501.6" id="42,41" style="" /><path d="M 73.0 452.2 L 73.0 536.2 L 76.4 536.2" id="48,42" style="" /><path d="M 83.0 274.5 L 83.0 314.0 L 99.9 314.0" id="45,43" style="" /><path d="M 83.0 274.5 L 83.0 235.0 L 94.5 235.0" id="45,44" style="" /><path d="M 79.5 323.8 L 79.5 274.5 L 83.0 274.5" id="46,45" style="" /><path d="M 74.4 368.3 L 74.4 323.8 L 79.5 323.8" id="47,46" style="" /><path d="M 73.0 452.2 L 73.0 368.3 L 74.4 368.3" id="48,47" style="" /><path d="M 65.8 304.1 L 65.8 452.2 L 73.0 452.2" id="50,48" style="" /><path d="M 65.8 304.1 L 65.8 156.0 L 71.8 156.0" id="50,49" style="" /><path d="M 62.3 190.5 L 62.3 304.1 L 65.8 304.1" id="52,50" style="" /><path d="M 62.3 190.5 L 62.3 77.0 L 64.5 77.0" id="52,51" style="" /><path d="M 59.3 425.1 L 59.3 190.5 L 62.3 190.5" id="53,52" style="" /><path d="M 57.4 576.9 L 57.4 425.1 L 59.3 425.1" id="54,53" style="" /><path d="M 54.6 682.5 L 54.6 576.9 L 57.4 576.9" id="55,54" style="" /><path d="M 52.8 764.9 L 52.8 682.5 L 54.6 682.5" id="56,55" style="" /><path d="M 51.5 835.7 L 51.5 764.9 L 52.8 764.9" id="57,56" style="" /><path d="M 50.8 967.4 L 50.8 835.7 L 51.5 835.7" id="58,57" style="" /></g><g class="toytree-AlignEdges" style="stroke:rgb(36.5%,42.4%,47.8%);stroke-opacity:0.95;stroke-dasharray:2,4;stroke-linecap:round;stroke-width:1.8"><path d="M 426.9 1202.8 L 416.4 1202.8" /><path d="M 426.9 1163.3 L 403.8 1163.3" /><path d="M 426.9 1123.8 L 402.8 1123.8" /><path d="M 426.9 1084.3 L 402.6 1084.3" /><path d="M 426.9 1044.8 L 389.7 1044.8" /><path d="M 426.9 1005.3 L 406.5 1005.3" /><path d="M 426.9 965.8 L 404.6 965.8" /><path d="M 426.9 926.3 L 393.8 926.3" /><path d="M 426.9 886.8 L 397.9 886.8" /><path d="M 426.9 847.3 L 404.1 847.3" /><path d="M 426.9 807.8 L 411.6 807.8" /><path d="M 426.9 768.3 L 388.7 768.3" /><path d="M 426.9 728.8 L 403.3 728.8" /><path d="M 426.9 689.3 L 416.2 689.3" /><path d="M 426.9 649.8 L 402.6 649.8" /><path d="M 426.9 610.2 L 415.3 610.2" /><path d="M 426.9 570.7 L 423.6 570.7" /><path d="M 426.9 531.2 L 410.3 531.2" /><path d="M 426.9 491.7 L 409.5 491.7" /><path d="M 426.9 452.2 L 417.1 452.2" /><path d="M 426.9 412.7 L 407.4 412.7" /><path d="M 426.9 373.2 L 404.2 373.2" /><path d="M 426.9 333.7 L 422.2 333.7" /><path d="M 426.9 294.2 L 426.9 294.2" /><path d="M 426.9 254.7 L 413.5 254.7" /><path d="M 426.9 215.2 L 419.6 215.2" /><path d="M 426.9 175.7 L 404.2 175.7" /><path d="M 426.9 136.2 L 409.1 136.2" /><path d="M 426.9 96.7 L 403.5 96.7" /><path d="M 426.9 57.2 L 412.7 57.2" /></g><g class="toytree-AdmixEdges" style="fill:rgb(0.0%,0.0%,0.0%);fill-opacity:0.0;stroke:rgb(90.6%,54.1%,76.5%);stroke-opacity:0.6;font-size:14px;stroke-linecap:round;stroke-width:5" /><g class="toytree-Nodes" style="fill:rgb(40.0%,76.1%,64.7%);fill-opacity:1.0;stroke:none;stroke-width:1.5" /><g class="toytree-TipLabels" style="fill:rgb(90.6%,54.1%,76.5%);fill-opacity:1.0;font-family:Helvetica;font-size:12px;font-weight:300;vertical-align:baseline;white-space:pre;stroke:none"><g class="toytree-TipLabel" transform="translate(426.925,1202.8)"><text x="8.0" y="3.066" style="fill:rgb(40.0%,65.1%,11.8%);fill-opacity:1.0">INTEGRIDADE &gt; PS&#205;QUICA &gt; CONSTRANGIMENTO</text></g><g class="toytree-TipLabel" transform="translate(426.925,1163.3)"><text x="8.0" y="3.066" style="fill:rgb(40.0%,65.1%,11.8%);fill-opacity:1.0">INTEGRIDADE &gt; F&#205;SICA &gt; AGRESS&#195;O ou VIAS DE FATO</text></g><g class="toytree-TipLabel" transform="translate(426.925,1123.79)"><text x="8.0" y="3.066" style="fill:rgb(40.0%,65.1%,11.8%);fill-opacity:1.0">INTEGRIDADE &gt; PS&#205;QUICA &gt; AMEA&#199;A ou COA&#199;&#195;O</text></g><g class="toytree-TipLabel" transform="translate(426.925,1084.29)"><text x="8.0" y="3.066" style="fill:rgb(90.2%,67.1%,0.8%);fill-opacity:1.0">INTEGRIDADE &gt; F&#205;SICA &gt; LES&#195;O CORPORAL</text></g><g class="toytree-TipLabel" transform="translate(426.925,1044.79)"><text x="8.0" y="3.066" style="fill:rgb(90.2%,67.1%,0.8%);fill-opacity:1.0">INTEGRIDADE &gt; PS&#205;QUICA &gt; EXPOSI&#199;&#195;O (EROTIZA&#199;&#195;O)</text></g><g class="toytree-TipLabel" transform="translate(426.925,1005.28)"><text x="8.0" y="3.066" style="fill:rgb(90.2%,67.1%,0.8%);fill-opacity:1.0">INTEGRIDADE &gt; PS&#205;QUICA &gt; ALIENA&#199;&#195;O PARENTAL</text></g><g class="toytree-TipLabel" transform="translate(426.925,965.779)"><text x="8.0" y="3.066" style="fill:rgb(90.2%,67.1%,0.8%);fill-opacity:1.0">LIBERDADE &gt; DIREITOS INDIVIDUAIS &gt; SEQUESTRO</text></g><g class="toytree-TipLabel" transform="translate(426.925,926.276)"><text x="8.0" y="3.066" style="fill:rgb(16.5%,43.5%,59.2%);fill-opacity:1.0">LIBERDADE &gt; SEXUAL &gt; F&#205;SICA &gt; ESTUPRO</text></g><g class="toytree-TipLabel" transform="translate(426.925,886.772)"><text x="8.0" y="3.066" style="fill:rgb(16.5%,43.5%,59.2%);fill-opacity:1.0">LIBERDADE &gt; DIREITOS INDIVIDUAIS &gt; C&#193;RCERE PRIVADO</text></g><g class="toytree-TipLabel" transform="translate(426.925,847.269)"><text x="8.0" y="3.066" style="fill:rgb(16.5%,43.5%,59.2%);fill-opacity:1.0">INTEGRIDADE &gt; F&#205;SICA &gt; MAUS TRATOS</text></g><g class="toytree-TipLabel" transform="translate(426.925,807.766)"><text x="8.0" y="3.066" style="fill:rgb(16.5%,43.5%,59.2%);fill-opacity:1.0">INTEGRIDADE &gt; F&#205;SICA &gt; TORTURA F&#205;SICA</text></g><g class="toytree-TipLabel" transform="translate(426.925,768.262)"><text x="8.0" y="3.066" style="fill:rgb(16.5%,43.5%,59.2%);fill-opacity:1.0">INTEGRIDADE &gt; PATRIMONIAL &gt; INDIVIDUAL</text></g><g class="toytree-TipLabel" transform="translate(426.925,728.759)"><text x="8.0" y="3.066" style="fill:rgb(90.6%,16.1%,54.1%);fill-opacity:1.0">LIBERDADE &gt; SEXUAL &gt; PS&#205;QUICA &gt; ASS&#201;DIO SEXUAL</text></g><g class="toytree-TipLabel" transform="translate(426.925,689.255)"><text x="8.0" y="3.066" style="fill:rgb(90.6%,16.1%,54.1%);fill-opacity:1.0">INTEGRIDADE &gt; PS&#205;QUICA &gt; ASS&#201;DIO MORAL</text></g><g class="toytree-TipLabel" transform="translate(426.925,649.752)"><text x="8.0" y="3.066" style="fill:rgb(90.6%,16.1%,54.1%);fill-opacity:1.0">LIBERDADE &gt; SEXUAL &gt; PS&#205;QUICA &gt; ABUSO SEXUAL PS&#205;QUICO</text></g><g class="toytree-TipLabel" transform="translate(426.925,610.248)"><text x="8.0" y="3.066" style="fill:rgb(90.6%,16.1%,54.1%);fill-opacity:1.0">INTEGRIDADE &gt; PS&#205;QUICA &gt; TORTURA PS&#205;QUICA</text></g><g class="toytree-TipLabel" transform="translate(426.925,570.745)"><text x="8.0" y="3.066" style="fill:rgb(85.1%,37.3%,0.8%);fill-opacity:1.0">VIDA &gt; FEMINIC&#205;DIO</text></g><g class="toytree-TipLabel" transform="translate(426.925,531.241)"><text x="8.0" y="3.066" style="fill:rgb(85.1%,37.3%,0.8%);fill-opacity:1.0">LIBERDADE &gt; SEXUAL &gt; ESTUPRO DE VULNER&#193;VEL</text></g><g class="toytree-TipLabel" transform="translate(426.925,491.738)"><text x="8.0" y="3.066" style="fill:rgb(85.1%,37.3%,0.8%);fill-opacity:1.0">LIBERDADE &gt; SEXUAL &gt; ESTUPRO DE VULNER&#193;VEL &gt; PEDOFILIA</text></g><g class="toytree-TipLabel" transform="translate(426.925,452.234)"><text x="8.0" y="3.066" style="fill:rgb(85.1%,37.3%,0.8%);fill-opacity:1.0">LIBERDADE &gt; SEXUAL &gt; ESTUPRO CORRETIVO</text></g><g class="toytree-TipLabel" transform="translate(426.925,412.731)"><text x="8.0" y="3.066" style="fill:rgb(85.1%,37.3%,0.8%);fill-opacity:1.0">LIBERDADE &gt; SEXUAL &gt; IMPORTUNA&#199;&#195;O SEXUAL</text></g><g class="toytree-TipLabel" transform="translate(426.925,373.228)"><text x="8.0" y="3.066" style="fill:rgb(10.6%,62.0%,46.7%);fill-opacity:1.0">LIBERDADE &gt; SEXUAL &gt; ESTUPRO VIRTUAL</text></g><g class="toytree-TipLabel" transform="translate(426.925,333.724)"><text x="8.0" y="3.066" style="fill:rgb(10.6%,62.0%,46.7%);fill-opacity:1.0">LIBERDADE &gt; DIREITOS INDIVIDUAIS &gt; TR&#193;FICO DE MULHERES - INTERNACIONAL</text></g><g class="toytree-TipLabel" transform="translate(426.925,294.221)"><text x="8.0" y="3.066" style="fill:rgb(10.6%,62.0%,46.7%);fill-opacity:1.0">LIBERDADE &gt; DIREITOS INDIVIDUAIS &gt; TR&#193;FICO DE MULHERES - NACIONAL</text></g><g class="toytree-TipLabel" transform="translate(426.925,254.717)"><text x="8.0" y="3.066" style="fill:rgb(10.6%,62.0%,46.7%);fill-opacity:1.0">LIBERDADE &gt; SEXUAL &gt; VIOL&#202;NCIA SEXUAL MEDIANTE FRAUDE</text></g><g class="toytree-TipLabel" transform="translate(426.925,215.214)"><text x="8.0" y="3.066" style="fill:rgb(10.6%,62.0%,46.7%);fill-opacity:1.0">LIBERDADE &gt; DIREITOS INDIVIDUAIS &gt; STALKING</text></g><g class="toytree-TipLabel" transform="translate(426.925,175.71)"><text x="8.0" y="3.066" style="fill:rgb(45.9%,43.9%,70.2%);fill-opacity:1.0">LIBERDADE &gt; SEXUAL &gt; F&#205;SICA &gt; ABUSO SEXUAL F&#205;SICO</text></g><g class="toytree-TipLabel" transform="translate(426.925,136.207)"><text x="8.0" y="3.066" style="fill:rgb(45.9%,43.9%,70.2%);fill-opacity:1.0">DIREITOS CIVIS E POL&#205;TICOS &gt; VIOL&#202;NCIA POLIT&#205;CA DE G&#202;NERO E CONTRA AS MULHERES</text></g><g class="toytree-TipLabel" transform="translate(426.925,96.7034)"><text x="8.0" y="3.066" style="fill:rgb(45.9%,43.9%,70.2%);fill-opacity:1.0">LIBERDADE &gt; SEXUAL &gt; F&#205;SICA &gt; EXPLORA&#199;&#195;O SEXUAL</text></g><g class="toytree-TipLabel" transform="translate(426.925,57.2)"><text x="8.0" y="3.066" style="fill:rgb(45.9%,43.9%,70.2%);fill-opacity:1.0">INTEGRIDADE &gt; F&#205;SICA &gt; VIOL&#202;NCIA OBST&#201;TRICA</text></g></g></g></g><g class="toyplot-coordinates-Axis" id="t508ff7c8984d43f8a64598e44f8c10cd" transform="translate(50.0,1210.0)translate(0,15.0)"><line x1="0.5063242307488199" y1="0" x2="788.1217942844836" y2="0" style="stroke:rgb(33.3%,39.2%,45.5%);stroke-opacity:1.0;stroke-width:1.2" /><g><line x1="37.5457023999236" y1="0" x2="37.5457023999236" y2="-5" style="stroke:rgb(33.3%,39.2%,45.5%);stroke-opacity:1.0;stroke-width:1.0" /><line x1="84.45670814270852" y1="0" x2="84.45670814270852" y2="-5" style="stroke:rgb(33.3%,39.2%,45.5%);stroke-opacity:1.0;stroke-width:1.0" /><line x1="131.36771388549357" y1="0" x2="131.36771388549357" y2="-5" style="stroke:rgb(33.3%,39.2%,45.5%);stroke-opacity:1.0;stroke-width:1.0" /><line x1="178.2787196282785" y1="0" x2="178.2787196282785" y2="-5" style="stroke:rgb(33.3%,39.2%,45.5%);stroke-opacity:1.0;stroke-width:1.0" /><line x1="225.18972537106353" y1="0" x2="225.18972537106353" y2="-5" style="stroke:rgb(33.3%,39.2%,45.5%);stroke-opacity:1.0;stroke-width:1.0" /><line x1="272.10073111384855" y1="0" x2="272.10073111384855" y2="-5" style="stroke:rgb(33.3%,39.2%,45.5%);stroke-opacity:1.0;stroke-width:1.0" /><line x1="319.0117368566336" y1="0" x2="319.0117368566336" y2="-5" style="stroke:rgb(33.3%,39.2%,45.5%);stroke-opacity:1.0;stroke-width:1.0" /><line x1="365.92274259941854" y1="0" x2="365.92274259941854" y2="-5" style="stroke:rgb(33.3%,39.2%,45.5%);stroke-opacity:1.0;stroke-width:1.0" /><line x1="412.8337483422035" y1="0" x2="412.8337483422035" y2="-5" style="stroke:rgb(33.3%,39.2%,45.5%);stroke-opacity:1.0;stroke-width:1.0" /><line x1="459.74475408498853" y1="0" x2="459.74475408498853" y2="-5" style="stroke:rgb(33.3%,39.2%,45.5%);stroke-opacity:1.0;stroke-width:1.0" /><line x1="506.6557598277736" y1="0" x2="506.6557598277736" y2="-5" style="stroke:rgb(33.3%,39.2%,45.5%);stroke-opacity:1.0;stroke-width:1.0" /><line x1="553.5667655705586" y1="0" x2="553.5667655705586" y2="-5" style="stroke:rgb(33.3%,39.2%,45.5%);stroke-opacity:1.0;stroke-width:1.0" /><line x1="600.4777713133435" y1="0" x2="600.4777713133435" y2="-5" style="stroke:rgb(33.3%,39.2%,45.5%);stroke-opacity:1.0;stroke-width:1.0" /><line x1="647.3887770561286" y1="0" x2="647.3887770561286" y2="-5" style="stroke:rgb(33.3%,39.2%,45.5%);stroke-opacity:1.0;stroke-width:1.0" /><line x1="694.2997827989134" y1="0" x2="694.2997827989134" y2="-5" style="stroke:rgb(33.3%,39.2%,45.5%);stroke-opacity:1.0;stroke-width:1.0" /><line x1="741.2107885416984" y1="0" x2="741.2107885416984" y2="-5" style="stroke:rgb(33.3%,39.2%,45.5%);stroke-opacity:1.0;stroke-width:1.0" /><line x1="788.1217942844836" y1="0" x2="788.1217942844836" y2="-5" style="stroke:rgb(33.3%,39.2%,45.5%);stroke-opacity:1.0;stroke-width:1.0" /></g><g><g transform="translate(37.5457023999236,6)"><text x="-6.95" y="8.555" style="fill:rgb(66.7%,71.8%,76.9%);fill-opacity:1.0;font-family:Helvetica;font-size:10.0px;font-weight:normal;stroke:none;vertical-align:baseline;white-space:pre">0.4</text></g><g transform="translate(84.45670814270852,6)"><text x="-12.51" y="8.555" style="fill:rgb(66.7%,71.8%,76.9%);fill-opacity:1.0;font-family:Helvetica;font-size:10.0px;font-weight:normal;stroke:none;vertical-align:baseline;white-space:pre">0.375</text></g><g transform="translate(131.36771388549357,6)"><text x="-9.729999999999999" y="8.555" style="fill:rgb(66.7%,71.8%,76.9%);fill-opacity:1.0;font-family:Helvetica;font-size:10.0px;font-weight:normal;stroke:none;vertical-align:baseline;white-space:pre">0.35</text></g><g transform="translate(178.2787196282785,6)"><text x="-12.51" y="8.555" style="fill:rgb(66.7%,71.8%,76.9%);fill-opacity:1.0;font-family:Helvetica;font-size:10.0px;font-weight:normal;stroke:none;vertical-align:baseline;white-space:pre">0.325</text></g><g transform="translate(225.18972537106353,6)"><text x="-6.95" y="8.555" style="fill:rgb(66.7%,71.8%,76.9%);fill-opacity:1.0;font-family:Helvetica;font-size:10.0px;font-weight:normal;stroke:none;vertical-align:baseline;white-space:pre">0.3</text></g><g transform="translate(272.10073111384855,6)"><text x="-12.51" y="8.555" style="fill:rgb(66.7%,71.8%,76.9%);fill-opacity:1.0;font-family:Helvetica;font-size:10.0px;font-weight:normal;stroke:none;vertical-align:baseline;white-space:pre">0.275</text></g><g transform="translate(319.0117368566336,6)"><text x="-9.729999999999999" y="8.555" style="fill:rgb(66.7%,71.8%,76.9%);fill-opacity:1.0;font-family:Helvetica;font-size:10.0px;font-weight:normal;stroke:none;vertical-align:baseline;white-space:pre">0.25</text></g><g transform="translate(365.92274259941854,6)"><text x="-12.51" y="8.555" style="fill:rgb(66.7%,71.8%,76.9%);fill-opacity:1.0;font-family:Helvetica;font-size:10.0px;font-weight:normal;stroke:none;vertical-align:baseline;white-space:pre">0.225</text></g><g transform="translate(412.8337483422035,6)"><text x="-6.95" y="8.555" style="fill:rgb(66.7%,71.8%,76.9%);fill-opacity:1.0;font-family:Helvetica;font-size:10.0px;font-weight:normal;stroke:none;vertical-align:baseline;white-space:pre">0.2</text></g><g transform="translate(459.74475408498853,6)"><text x="-12.51" y="8.555" style="fill:rgb(66.7%,71.8%,76.9%);fill-opacity:1.0;font-family:Helvetica;font-size:10.0px;font-weight:normal;stroke:none;vertical-align:baseline;white-space:pre">0.175</text></g><g transform="translate(506.6557598277736,6)"><text x="-9.729999999999999" y="8.555" style="fill:rgb(66.7%,71.8%,76.9%);fill-opacity:1.0;font-family:Helvetica;font-size:10.0px;font-weight:normal;stroke:none;vertical-align:baseline;white-space:pre">0.15</text></g><g transform="translate(553.5667655705586,6)"><text x="-12.51" y="8.555" style="fill:rgb(66.7%,71.8%,76.9%);fill-opacity:1.0;font-family:Helvetica;font-size:10.0px;font-weight:normal;stroke:none;vertical-align:baseline;white-space:pre">0.125</text></g><g transform="translate(600.4777713133435,6)"><text x="-6.95" y="8.555" style="fill:rgb(66.7%,71.8%,76.9%);fill-opacity:1.0;font-family:Helvetica;font-size:10.0px;font-weight:normal;stroke:none;vertical-align:baseline;white-space:pre">0.1</text></g><g transform="translate(647.3887770561286,6)"><text x="-12.51" y="8.555" style="fill:rgb(66.7%,71.8%,76.9%);fill-opacity:1.0;font-family:Helvetica;font-size:10.0px;font-weight:normal;stroke:none;vertical-align:baseline;white-space:pre">0.075</text></g><g transform="translate(694.2997827989134,6)"><text x="-9.729999999999999" y="8.555" style="fill:rgb(66.7%,71.8%,76.9%);fill-opacity:1.0;font-family:Helvetica;font-size:10.0px;font-weight:normal;stroke:none;vertical-align:baseline;white-space:pre">0.05</text></g><g transform="translate(741.2107885416984,6)"><text x="-12.51" y="8.555" style="fill:rgb(66.7%,71.8%,76.9%);fill-opacity:1.0;font-family:Helvetica;font-size:10.0px;font-weight:normal;stroke:none;vertical-align:baseline;white-space:pre">0.025</text></g><g transform="translate(788.1217942844836,6)"><text x="-2.78" y="8.555" style="fill:rgb(66.7%,71.8%,76.9%);fill-opacity:1.0;font-family:Helvetica;font-size:10.0px;font-weight:normal;stroke:none;vertical-align:baseline;white-space:pre">0</text></g></g><g class="toyplot-coordinates-Axis-coordinates" style="visibility:hidden" transform=""><line x1="0" x2="0" y1="-3.0" y2="4.5" style="stroke:rgb(43.9%,50.2%,56.5%);stroke-opacity:1.0;stroke-width:1.0" /><text x="0" y="-6" style="alignment-baseline:alphabetic;fill:rgb(43.9%,50.2%,56.5%);fill-opacity:1.0;font-size:10px;font-weight:normal;stroke:none;text-anchor:middle" /></g></g></g><g class="toyplot-mark-Text" id="ta08c4573244c4b949b279b62a03f4566"><g class="toyplot-Series"><g class="toyplot-Datum" transform="translate(35.0,24.0)"><text x="-205.3615" y="4.854500000000002" style="fill:rgb(95.7%,96.9%,98%);fill-opacity:1.0;font-family:helvetica;font-size:19.0px;font-weight:bold;opacity:1;stroke:none;vertical-align:baseline;white-space:pre">DAMICORE tree: Case-balanced replicate-002</text></g></g></g><g class="toyplot-mark-Text" id="tb09e4761222a4002a5783ad8264d34ca"><g class="toyplot-Series"><g class="toyplot-Datum" transform="translate(35.0,46.0)"><text x="-183.40200000000002" y="3.066" style="fill:rgb(66.7%,71.8%,76.9%);fill-opacity:1.0;font-family:helvetica;font-size:12.0px;font-weight:normal;opacity:1;stroke:none;vertical-align:baseline;white-space:pre">Contextual profiles shown by category; colors are local cluster labels.</text></g></g></g><g class="toyplot-coordinates-Table" id="t66b81cde539c4cd7ae3cccd8cd2b092c"><g transform="translate(1371.0,24.0)"><text x="-83.23700000000001" y="-10.423" style="fill:rgb(95.7%,96.9%,98%);fill-opacity:1.0;font-family:Helvetica;font-size:14.0px;font-weight:bold;stroke:none;vertical-align:baseline;white-space:pre">Local DAMICORE cluster</text></g><g transform="translate(1366.0,39.714285714285715)"><g style="fill:rgb(16.5%,43.5%,59.2%);fill-opacity:1.0;stroke:rgb(16.5%,43.5%,59.2%);stroke-opacity:1.0" transform="translate(-5.55, -4.440892098500626e-16)"><rect x="-6.0" y="-6.0" width="12.0" height="12.0" /></g></g><g transform="translate(1376.0,39.714285714285715)"><text x="0" y="3.066" style="fill:rgb(83.1%,86.3%,89.4%);fill-opacity:1.0;font-family:Helvetica;font-size:12.0px;font-weight:normal;stroke:none;vertical-align:baseline;white-space:pre">Cluster 0</text></g><g transform="translate(1366.0,71.14285714285714)"><g style="fill:rgb(85.1%,37.3%,0.784%);fill-opacity:1.0;stroke:rgb(85.1%,37.3%,0.784%);stroke-opacity:1.0" transform="translate(-5.55, -4.440892098500626e-16)"><rect x="-6.0" y="-6.0" width="12.0" height="12.0" /></g></g><g transform="translate(1376.0,71.14285714285714)"><text x="0" y="3.066" style="fill:rgb(83.1%,86.3%,89.4%);fill-opacity:1.0;font-family:Helvetica;font-size:12.0px;font-weight:normal;stroke:none;vertical-align:baseline;white-space:pre">Cluster 1</text></g><g transform="translate(1366.0,102.57142857142857)"><g style="fill:rgb(10.6%,62%,46.7%);fill-opacity:1.0;stroke:rgb(10.6%,62%,46.7%);stroke-opacity:1.0" transform="translate(-5.55, -4.440892098500626e-16)"><rect x="-6.0" y="-6.0" width="12.0" height="12.0" /></g></g><g transform="translate(1376.0,102.57142857142857)"><text x="0" y="3.066" style="fill:rgb(83.1%,86.3%,89.4%);fill-opacity:1.0;font-family:Helvetica;font-size:12.0px;font-weight:normal;stroke:none;vertical-align:baseline;white-space:pre">Cluster 2</text></g><g transform="translate(1366.0,134.0)"><g style="fill:rgb(45.9%,43.9%,70.2%);fill-opacity:1.0;stroke:rgb(45.9%,43.9%,70.2%);stroke-opacity:1.0" transform="translate(-5.55, -4.440892098500626e-16)"><rect x="-6.0" y="-6.0" width="12.0" height="12.0" /></g></g><g transform="translate(1376.0,134.0)"><text x="0" y="3.066" style="fill:rgb(83.1%,86.3%,89.4%);fill-opacity:1.0;font-family:Helvetica;font-size:12.0px;font-weight:normal;stroke:none;vertical-align:baseline;white-space:pre">Cluster 3</text></g><g transform="translate(1366.0,165.42857142857144)"><g style="fill:rgb(90.6%,16.1%,54.1%);fill-opacity:1.0;stroke:rgb(90.6%,16.1%,54.1%);stroke-opacity:1.0" transform="translate(-5.55, -4.440892098500626e-16)"><rect x="-6.0" y="-6.0" width="12.0" height="12.0" /></g></g><g transform="translate(1376.0,165.42857142857144)"><text x="0" y="3.066" style="fill:rgb(83.1%,86.3%,89.4%);fill-opacity:1.0;font-family:Helvetica;font-size:12.0px;font-weight:normal;stroke:none;vertical-align:baseline;white-space:pre">Cluster 4</text></g><g transform="translate(1366.0,196.85714285714283)"><g style="fill:rgb(40%,65.1%,11.8%);fill-opacity:1.0;stroke:rgb(40%,65.1%,11.8%);stroke-opacity:1.0" transform="translate(-5.55, -4.440892098500626e-16)"><rect x="-6.0" y="-6.0" width="12.0" height="12.0" /></g></g><g transform="translate(1376.0,196.85714285714283)"><text x="0" y="3.066" style="fill:rgb(83.1%,86.3%,89.4%);fill-opacity:1.0;font-family:Helvetica;font-size:12.0px;font-weight:normal;stroke:none;vertical-align:baseline;white-space:pre">Cluster 5</text></g><g transform="translate(1366.0,228.28571428571428)"><g style="fill:rgb(90.2%,67.1%,0.784%);fill-opacity:1.0;stroke:rgb(90.2%,67.1%,0.784%);stroke-opacity:1.0" transform="translate(-5.55, -4.440892098500626e-16)"><rect x="-6.0" y="-6.0" width="12.0" height="12.0" /></g></g><g transform="translate(1376.0,228.28571428571428)"><text x="0" y="3.066" style="fill:rgb(83.1%,86.3%,89.4%);fill-opacity:1.0;font-family:Helvetica;font-size:12.0px;font-weight:normal;stroke:none;vertical-align:baseline;white-space:pre">Cluster 6</text></g></g></svg>